<svg width="512" height="512" viewBox="0 0 512 512" fill="none" xmlns="http://www.w3.org/2000/svg">
<g clip-path="url(#clip0_136_28)">
<path fill-rule="evenodd" clip-rule="evenodd" d="M511.712 115.831C511.904 116.514 512 117.214 512 117.913V227.811C512 229.225 511.615 230.614 510.885 231.837C510.154 233.059 509.104 234.073 507.84 234.774L412.896 287.882V393.133C412.895 394.541 412.513 395.923 411.788 397.143C411.064 398.362 410.022 399.375 408.768 400.08L210.56 510.927C210.096 511.175 209.6 511.331 209.12 511.502C208.928 511.564 208.752 511.673 208.56 511.735C207.176 512.088 205.72 512.088 204.336 511.735C204.096 511.673 203.904 511.548 203.68 511.471C203.232 511.315 202.752 511.16 202.32 510.927L4.14401 400.08C2.88675 399.377 1.84202 398.365 1.11465 397.145C0.387293 395.926 0.00287366 394.542 0 393.133V63.4381C0 62.7231 0.0959944 62.0238 0.287994 61.3399C0.351994 61.1068 0.495989 60.9047 0.575989 60.6716C0.735989 60.2519 0.880004 59.8168 1.104 59.4282C1.264 59.164 1.488 58.9619 1.664 58.7133C1.904 58.4024 2.12799 58.0605 2.39999 57.7808C2.63999 57.5476 2.944 57.3767 3.216 57.1746C3.52 56.9415 3.77599 56.6773 4.12799 56.4908L103.232 1.06758C104.486 0.368092 105.906 0 107.352 0C108.798 0 110.218 0.368092 111.472 1.06758L210.576 56.4908C210.912 56.6928 211.2 56.9415 211.488 57.1746C211.76 57.3767 212.064 57.5476 212.288 57.7652C212.592 58.076 212.8 58.3869 213.04 58.7133C213.216 58.9619 213.456 59.164 213.6 59.4282C213.84 59.8168 213.968 60.2519 214.144 60.6716C214.224 60.9047 214.368 61.1068 214.416 61.3554C214.61 62.0338 214.713 62.734 214.72 63.4381V269.371L297.28 223.18V117.913C297.288 117.209 297.39 116.509 297.584 115.831C297.648 115.582 297.776 115.364 297.872 115.147C298.032 114.727 298.176 114.292 298.4 113.903C298.56 113.639 298.784 113.437 298.96 113.188C299.2 112.878 299.408 112.536 299.696 112.256C299.936 112.023 300.24 111.867 300.496 111.665C300.816 111.417 301.088 111.152 301.408 110.966L400.528 55.5427C401.781 54.8417 403.202 54.4727 404.648 54.4727C406.094 54.4727 407.515 54.8417 408.768 55.5427L507.872 110.966C508.224 111.168 508.48 111.432 508.8 111.65C509.056 111.852 509.344 112.023 509.6 112.256C509.872 112.536 510.08 112.878 510.336 113.188C510.512 113.437 510.736 113.655 510.88 113.903C511.12 114.292 511.264 114.727 511.424 115.147C511.52 115.38 511.648 115.582 511.712 115.831ZM495.488 223.18V131.792L460.8 151.189L412.896 177.983V269.371L495.488 223.18ZM396.384 388.501V297.052L349.264 323.193L214.704 397.796V490.116L396.384 388.501ZM16.512 77.3172V388.501L198.192 490.1V397.811L103.28 345.636L103.248 345.605L103.2 345.59C102.88 345.403 102.624 345.154 102.32 344.921C102.064 344.735 101.76 344.564 101.536 344.346L101.52 344.315C101.248 344.066 101.056 343.756 100.832 343.476C100.624 343.212 100.384 342.979 100.224 342.699L100.208 342.668C100.016 342.357 99.904 341.999 99.776 341.657C99.632 341.362 99.456 341.082 99.376 340.756C99.28 340.367 99.264 339.979 99.216 339.575C99.168 339.264 99.088 338.984 99.088 338.673V123.493L51.2 96.6982L16.512 77.3172ZM107.36 17.278L24.8 63.4381L107.344 109.598L189.904 63.4381L107.36 17.278ZM150.304 305.382L198.192 278.603V77.3172L163.52 96.6982L115.616 123.493V324.779L150.304 305.382ZM404.64 71.7531L322.08 117.913L404.64 164.073L487.168 117.913L404.64 71.7531ZM396.368 177.983L348.464 151.189L313.792 131.792V223.18L361.68 249.959L396.368 269.371V177.983ZM206.416 383.916L327.504 316.775L388.032 283.204L305.536 237.075L210.56 290.198L124 338.611L206.416 383.916Z" fill="#FF2D20"/>
</g>
<defs>
<clipPath id="clip0_136_28">
<rect width="512" height="512" fill="white"/>
</clipPath>
</defs>
</svg>
